<?xml version="1.0" encoding="UTF-8"?>
<svg id="logosandtypes_com" data-name="logosandtypes com" xmlns="http://www.w3.org/2000/svg" viewBox="0 0 150 150">
  <defs>
    <style>
      .cls-1 {
        fill: #040d33;
        fill-rule: evenodd;
      }

      .cls-2 {
        fill: none;
      }
    </style>
  </defs>
  <g id="Layer_3" data-name="Layer 3">
    <g id="Layer_2" data-name="Layer 2">
      <path id="Layer_3-2" data-name="Layer 3-2" class="cls-2" d="M0,0H150V150H0V0Z"/>
    </g>
  </g>
  <path class="cls-1" d="M118.22,67.74c-6.23-7.84-12.98-9.97-17.89-12.23,1.04-1.88,4.89-6.68,6.12-8.31,3.6-4.8,12.28-9.6,11.53-16.13,.2-3.6-5.93,3.76-8.2,6.32-4.71,5.41-9.04,10.99-13.3,16.63-12.39-3.53-28.72-6.43-36.72-12.91-8.65-7-3.53-14.5,.2-17.1,10.94-7.61,25.94,1.63,31.33,11.94,1.7,3.22,22.2-11.91,19.44-15.38-3.44,1.09-5.44,2.31-7.97,1.27-5.39-3.06-11.28-5.14-17.4-6.16-12.75-1.9-29.86,.14-35.27,13.3-3.76,8.43-1.16,18.33,6.27,23.78,7.91,6.21,22.79,10.74,32.17,13-.88,1.68-2.72,4.94-3.62,6.21-8.47-2.2-27.43-7.29-33.98-12.8-5.1-4.3-6.95-7.25-6.95-14.45,.32-2.58-1.45-1.63-1.72-.32-3.67,7.45-4.76,17.08,.72,23.31,6.95,7.77,21.95,12.44,34.97,15.86-1.79,3.83-6.68,11.55-8.59,14.84-7.41-1.13-14.97-.61-22.15,1.54-14.57,4.42-27.07,15.06-31.33,25.87-3.58,8.83-1.31,17.06,7.75,18.33l-.05,.07c16.35,2.27,35-21.75,43.2-33.98,9.06,3.31,12.66,8.02,20.39,12.69,3.13,2.54,25.1-19.98,27.36-22.65,6.34-7.59,12.41-21.5,3.69-32.51ZM25.55,141.72c-12.8-1.16-8.47-14.38-2.81-20.68,10.8-12.01,23.31-18.17,39.82-12.32-2.51,5.14-25.17,34.07-37.01,33Zm87.3-46.5c-2.36,3.62-14.81,17.83-17.08,15.97l.05,.11c-6.66-5.19-14.13-9.29-22.11-12.1,1.18-2.17,6.7-11.14,8.45-14.25,6.39,1.29,12.59,3.38,18.48,6.21,1.7,.77,4.76,4.3,1.56,7.57-1.52,1.31-.02,1.99,1.38,1.09,4.35-2.67,6.27-8,4.67-12.84-2.94-7.66-9.88-11.01-18.94-13.98,.66-1.74,2.2-4.12,3.17-6.07,6.16,1.09,12.01,3.44,17.22,6.91,6.21,3.9,7.25,15.11,3.15,21.38Z"/>
</svg>